<?xml version="1.0" encoding="utf-8"?>
<!-- Generator: Adobe Illustrator 12.0.0, SVG Export Plug-In . SVG Version: 6.00 Build 51448)  -->
<!DOCTYPE svg PUBLIC "-//W3C//DTD SVG 1.1//EN" "http://www.w3.org/Graphics/SVG/1.1/DTD/svg11.dtd" [
	<!ENTITY ns_svg "http://www.w3.org/2000/svg">
	<!ENTITY ns_xlink "http://www.w3.org/1999/xlink">
]>
<svg  version="1.1" id="Ebene_1" xmlns="&ns_svg;" xmlns:xlink="&ns_xlink;" width="60" height="60.199" viewBox="0 0 60 60.199"
	 overflow="visible" enable-background="new 0 0 60 60.199" xml:space="preserve">
<g>
	<rect fill="#047391" width="60" height="60.199"/>
	<g>
		<path fill="#FFFFFF" d="M38.221,38.156l-1.626,3.056l7.956-1.3C42.946,39.106,40.772,38.53,38.221,38.156L38.221,38.156z
			 M17.726,38.822c-3.686,0.973-6.02,2.564-6.02,4.931c0,0.509,0.112,1.011,0.326,1.474l12.769-2.087L17.726,38.822z M47.244,42.373
			l-17.772,2.897l4.687,5.329c7.698-0.689,13.387-3.146,13.387-6.849C47.545,43.259,47.436,42.801,47.244,42.373L47.244,42.373z
			 M26.47,45.769l-12.007,1.963c3.174,1.965,8.776,3.074,15.163,3.074c0.388,0,0.766-0.012,1.147-0.019L26.47,45.769z"/>
		<path fill="#FFFFFF" d="M29.625,8.644c-6.872,0-12.512,5.62-12.512,12.478c0,2.636,0.838,5.092,2.251,7.11l8.111,14.018
			l0.034,0.045c0.321,0.419,0.633,0.747,1,0.99c0.366,0.242,0.822,0.389,1.268,0.342c0.892-0.088,1.439-0.718,1.96-1.422
			l0.026-0.037l8.955-15.235l0.006-0.013c0.209-0.378,0.364-0.765,0.498-1.14c0.602-1.479,0.914-3.062,0.914-4.66
			C42.137,14.265,36.498,8.644,29.625,8.644z M29.625,15.83c2.982,0,5.309,2.323,5.309,5.29c0,2.97-2.326,5.292-5.309,5.292
			c-2.982,0-5.31-2.323-5.31-5.292C24.315,18.153,26.645,15.83,29.625,15.83L29.625,15.83z"/>
	</g>
</g>
</svg>
