<?xml version="1.0" encoding="utf-8"?>
<!-- Generator: Adobe Illustrator 12.0.0, SVG Export Plug-In . SVG Version: 6.00 Build 51448)  -->
<!DOCTYPE svg PUBLIC "-//W3C//DTD SVG 1.1//EN" "http://www.w3.org/Graphics/SVG/1.1/DTD/svg11.dtd" [
	<!ENTITY ns_svg "http://www.w3.org/2000/svg">
	<!ENTITY ns_xlink "http://www.w3.org/1999/xlink">
]>
<svg  version="1.1" id="Ebene_1" xmlns="&ns_svg;" xmlns:xlink="&ns_xlink;" width="80" height="80.266" viewBox="0 0 80 80.266"
	 overflow="visible" enable-background="new 0 0 80 80.266" xml:space="preserve">
<g>
	<rect fill="#047391" width="80" height="80.266"/>
	<g>
		<path fill="#FFFFFF" d="M50.961,50.875l-2.168,4.074L59.4,53.216C57.262,52.142,54.363,51.374,50.961,50.875L50.961,50.875z
			 M23.634,51.763c-4.914,1.297-8.026,3.42-8.026,6.574c0.001,0.679,0.15,1.349,0.435,1.965l17.025-2.782L23.634,51.763z
			 M62.992,56.497L39.296,60.36l6.249,7.107c10.264-0.92,17.848-4.197,17.848-9.132C63.393,57.679,63.248,57.067,62.992,56.497
			L62.992,56.497z M35.293,61.024l-16.01,2.618c4.232,2.62,11.702,4.099,20.217,4.099c0.517,0,1.021-0.015,1.529-0.024
			L35.293,61.024z"/>
		<path fill="#FFFFFF" d="M39.5,11.524c-9.163,0-16.682,7.494-16.682,16.638c0,3.515,1.117,6.789,3.002,9.481l10.814,18.691
			l0.045,0.06c0.428,0.558,0.844,0.996,1.333,1.319c0.488,0.323,1.096,0.518,1.691,0.457c1.189-0.117,1.92-0.958,2.613-1.897
			l0.035-0.049L54.291,35.91l0.008-0.016c0.279-0.505,0.486-1.021,0.664-1.521c0.803-1.972,1.219-4.082,1.219-6.213
			C56.182,19.02,48.664,11.524,39.5,11.524z M39.5,21.106c3.977,0,7.078,3.098,7.078,7.054c0,3.96-3.102,7.057-7.078,7.057
			c-3.976,0-7.079-3.097-7.079-7.057C32.421,24.204,35.527,21.106,39.5,21.106L39.5,21.106z"/>
	</g>
</g>
</svg>
