<?xml version="1.0" encoding="utf-8"?>
<!-- Generator: Adobe Illustrator 12.0.0, SVG Export Plug-In . SVG Version: 6.00 Build 51448)  -->
<!DOCTYPE svg PUBLIC "-//W3C//DTD SVG 1.1//EN" "http://www.w3.org/Graphics/SVG/1.1/DTD/svg11.dtd" [
	<!ENTITY ns_svg "http://www.w3.org/2000/svg">
	<!ENTITY ns_xlink "http://www.w3.org/1999/xlink">
]>
<svg  version="1.1" id="Ebene_1" xmlns="&ns_svg;" xmlns:xlink="&ns_xlink;" width="60" height="60" viewBox="0 0 60 60"
	 overflow="visible" enable-background="new 0 0 60 60" xml:space="preserve">
<g>
	<rect fill="#702020" width="60" height="60"/>
	<g>
		<path fill="#FFFFFF" d="M38.595,38.432l-1.625,3.057l7.955-1.301C43.319,39.383,41.145,38.805,38.595,38.432L38.595,38.432z
			 M18.101,39.098c-3.687,0.973-6.021,2.564-6.021,4.93c0,0.51,0.112,1.012,0.326,1.475l12.769-2.086L18.101,39.098z M47.618,42.648
			l-17.771,2.896l4.686,5.328c7.699-0.688,13.388-3.145,13.388-6.848C47.92,43.535,47.809,43.076,47.618,42.648L47.618,42.648z
			 M26.844,46.045l-12.007,1.963C18.012,49.973,23.613,51.08,30,51.08c0.389,0,0.767-0.012,1.148-0.018L26.844,46.045z"/>
		<path fill="#FFFFFF" d="M29.999,8.919c-6.872,0-12.512,5.62-12.512,12.479c0,2.636,0.838,5.092,2.251,7.109l8.111,14.018
			l0.033,0.045c0.321,0.418,0.633,0.746,1,0.99c0.366,0.242,0.822,0.389,1.269,0.342c0.892-0.088,1.438-0.717,1.958-1.422
			l0.027-0.037l8.954-15.235l0.008-0.013c0.209-0.379,0.364-0.765,0.497-1.141c0.602-1.479,0.916-3.062,0.916-4.659
			C42.512,14.541,36.872,8.919,29.999,8.919z M29.999,16.105c2.982,0,5.309,2.323,5.309,5.291c0,2.969-2.326,5.291-5.309,5.291
			c-2.981,0-5.31-2.323-5.31-5.291S27.02,16.105,29.999,16.105L29.999,16.105z"/>
	</g>
</g>
</svg>
