<?xml version="1.0" encoding="utf-8"?>
<!-- Generator: Adobe Illustrator 12.0.0, SVG Export Plug-In . SVG Version: 6.00 Build 51448)  -->
<!DOCTYPE svg PUBLIC "-//W3C//DTD SVG 1.1//EN" "http://www.w3.org/Graphics/SVG/1.1/DTD/svg11.dtd" [
	<!ENTITY ns_svg "http://www.w3.org/2000/svg">
	<!ENTITY ns_xlink "http://www.w3.org/1999/xlink">
]>
<svg  version="1.1" id="Ebene_1" xmlns="&ns_svg;" xmlns:xlink="&ns_xlink;" width="60" height="60" viewBox="0 0 60 60"
	 overflow="visible" enable-background="new 0 0 60 60" xml:space="preserve">
<title>close-circle-solid</title>
<g>
	<g>
		<rect fill="none" width="60" height="60"/>
	</g>
	<g>
		<path fill="#702020" d="M30,2.5C14.812,2.5,2.5,14.812,2.5,30c0,15.188,12.312,27.5,27.5,27.5c15.188,0,27.5-12.313,27.5-27.5
			C57.569,14.881,45.369,2.569,30.25,2.5C30.167,2.5,30.083,2.5,30,2.5z M40.375,36.875c0.975,0.849,1.188,2.28,0.5,3.375
			c-0.799,1.126-2.359,1.391-3.485,0.592c-0.142-0.1-0.272-0.215-0.39-0.342l-7-7l-7,7c-0.937,1.014-2.519,1.076-3.533,0.139
			c-0.127-0.117-0.242-0.248-0.342-0.389c-0.687-1.095-0.475-2.526,0.5-3.375L26.5,30l-6.875-6.875
			c-0.929-0.873-1.136-2.27-0.5-3.375c0.799-1.126,2.359-1.391,3.485-0.592c0.142,0.101,0.272,0.215,0.39,0.342l7,7l7-7
			c0.938-1.014,2.519-1.077,3.533-0.14c0.127,0.118,0.242,0.249,0.342,0.39c0.636,1.105,0.429,2.502-0.5,3.375L33.5,30
			L40.375,36.875z"/>
	</g>
</g>
</svg>
