<?xml version="1.0" encoding="utf-8"?>
<!-- Generator: Adobe Illustrator 12.0.0, SVG Export Plug-In . SVG Version: 6.00 Build 51448)  -->
<!DOCTYPE svg PUBLIC "-//W3C//DTD SVG 1.1//EN" "http://www.w3.org/Graphics/SVG/1.1/DTD/svg11.dtd" [
	<!ENTITY ns_svg "http://www.w3.org/2000/svg">
	<!ENTITY ns_xlink "http://www.w3.org/1999/xlink">
]>
<svg  version="1.1" id="Ebene_1" xmlns="&ns_svg;" xmlns:xlink="&ns_xlink;" width="192" height="192" viewBox="0 0 192 192"
	 overflow="visible" enable-background="new 0 0 192 192" xml:space="preserve">
<g>
	<rect fill="#702020" width="192" height="192"/>
	<g>
		<path fill="#FFFFFF" d="M123.503,122.981l-5.2,9.781l25.457-4.163C138.622,126.025,131.662,124.175,123.503,122.981
			L123.503,122.981z M57.922,125.112c-11.797,3.112-19.266,8.206-19.266,15.775c0,1.631,0.359,3.237,1.044,4.719l40.859-6.675
			L57.922,125.112z M152.378,136.475l-56.868,9.27l14.993,17.05c24.638-2.2,42.841-10.063,42.841-21.913
			C153.344,139.313,152.987,137.844,152.378,136.475L152.378,136.475z M85.9,147.344l-38.422,6.281
			c10.159,6.287,28.084,9.831,48.521,9.831c1.244,0,2.453-0.037,3.675-0.056L85.9,147.344z"/>
		<path fill="#FFFFFF" d="M95.997,28.542c-21.991,0-40.038,17.984-40.038,39.932c0,8.435,2.682,16.294,7.203,22.75l25.957,44.857
			l0.105,0.144c1.028,1.338,2.025,2.388,3.2,3.169c1.172,0.775,2.632,1.244,4.06,1.094c2.854-0.281,4.6-2.294,6.266-4.55
			l0.088-0.119l28.652-48.751l0.025-0.041c0.669-1.212,1.166-2.446,1.591-3.649c1.925-4.731,2.931-9.797,2.931-14.91
			C136.037,46.529,117.99,28.542,95.997,28.542z M95.997,51.536c9.544,0,16.987,7.435,16.987,16.931
			c0,9.5-7.443,16.932-16.987,16.932c-9.541,0-16.991-7.435-16.991-16.932C79.006,58.971,86.463,51.536,95.997,51.536L95.997,51.536
			z"/>
	</g>
</g>
</svg>
