<?xml version="1.0" encoding="utf-8"?>
<!-- Generator: Adobe Illustrator 12.0.0, SVG Export Plug-In . SVG Version: 6.00 Build 51448)  -->
<!DOCTYPE svg PUBLIC "-//W3C//DTD SVG 1.1//EN" "http://www.w3.org/Graphics/SVG/1.1/DTD/svg11.dtd" [
	<!ENTITY ns_svg "http://www.w3.org/2000/svg">
	<!ENTITY ns_xlink "http://www.w3.org/1999/xlink">
]>
<svg  version="1.1" id="Ebene_1" xmlns="&ns_svg;" xmlns:xlink="&ns_xlink;" width="192" height="192" viewBox="0 0 192 192"
	 overflow="visible" enable-background="new 0 0 192 192" xml:space="preserve">
<g>
	<rect fill="#702020" width="192" height="192"/>
	<g>
		<path fill="#FFFFFF" d="M123.506,122.981l-5.199,9.784l25.453-4.162C138.619,126.025,131.662,124.175,123.506,122.981
			L123.506,122.981z M57.924,125.112c-11.799,3.116-19.268,8.206-19.268,15.778c0,1.631,0.357,3.237,1.042,4.719l40.861-6.675
			L57.924,125.112z M152.378,136.475l-56.867,9.266l14.995,17.051c24.638-2.203,42.841-10.066,42.841-21.913
			C153.344,139.313,152.987,137.844,152.378,136.475L152.378,136.475z M85.901,147.344l-38.423,6.281
			c10.16,6.287,28.082,9.831,48.521,9.831c1.245,0,2.456-0.037,3.675-0.06L85.901,147.344z"/>
		<path fill="#FFFFFF" d="M95.997,28.541c-21.991,0-40.039,17.985-40.039,39.934c0,8.435,2.683,16.294,7.203,22.747l25.956,44.859
			l0.104,0.144c1.028,1.338,2.026,2.388,3.2,3.166c1.172,0.775,2.631,1.247,4.061,1.097c2.855-0.281,4.602-2.297,6.268-4.55
			l0.088-0.119l28.649-48.753l0.025-0.04c0.669-1.213,1.165-2.45,1.594-3.653c1.925-4.731,2.931-9.797,2.931-14.909
			C136.037,46.531,117.99,28.541,95.997,28.541z M95.997,51.537c9.54,0,16.99,7.432,16.99,16.929c0,9.503-7.443,16.931-16.99,16.931
			c-9.539,0-16.992-7.431-16.992-16.931C79.005,58.969,86.464,51.537,95.997,51.537L95.997,51.537z"/>
	</g>
</g>
</svg>
