<?xml version="1.0" encoding="utf-8"?>
<!-- Generator: Adobe Illustrator 12.0.0, SVG Export Plug-In . SVG Version: 6.00 Build 51448)  -->
<!DOCTYPE svg PUBLIC "-//W3C//DTD SVG 1.1//EN" "http://www.w3.org/Graphics/SVG/1.1/DTD/svg11.dtd" [
	<!ENTITY ns_svg "http://www.w3.org/2000/svg">
	<!ENTITY ns_xlink "http://www.w3.org/1999/xlink">
]>
<svg  version="1.1" id="Ebene_1" xmlns="&ns_svg;" xmlns:xlink="&ns_xlink;" width="512" height="512" viewBox="0 0 512 512"
	 overflow="visible" enable-background="new 0 0 512 512" xml:space="preserve">
<g>
	<rect fill="#702020" width="512" height="512"/>
	<g>
		<path fill="#FFFFFF" d="M329.342,327.95l-13.867,26.083l67.884-11.1C369.658,336.066,351.1,331.134,329.342,327.95L329.342,327.95
			z M154.458,333.634c-31.458,8.3-51.375,21.883-51.375,42.066c0,4.35,0.959,8.633,2.784,12.583l108.958-17.8L154.458,333.634z
			 M406.342,363.934l-151.65,24.717l39.983,45.467c65.7-5.867,114.242-26.834,114.242-58.434
			C408.917,371.5,407.967,367.583,406.342,363.934L406.342,363.934z M229.066,392.917l-102.458,16.75
			C153.7,426.434,201.5,435.884,256,435.884c3.316,0,6.542-0.101,9.8-0.15L229.066,392.917z"/>
		<path fill="#FFFFFF" d="M255.992,76.112c-58.643,0-106.768,47.959-106.768,106.483c0,22.492,7.15,43.45,19.209,60.667
			l69.217,119.621l0.283,0.383c2.741,3.566,5.399,6.367,8.533,8.45c3.125,2.066,7.017,3.316,10.825,2.917
			c7.608-0.75,12.267-6.117,16.708-12.134l0.233-0.316l76.408-130.004l0.066-0.108c1.784-3.233,3.108-6.525,4.242-9.733
			c5.133-12.617,7.816-26.125,7.816-39.759C362.767,124.079,314.642,76.112,255.992,76.112z M255.992,137.43
			c25.449,0,45.3,19.824,45.3,45.149c0,25.333-19.851,45.15-45.3,45.15c-25.442,0-45.309-19.825-45.309-45.15
			S230.566,137.43,255.992,137.43L255.992,137.43z"/>
	</g>
</g>
</svg>
