<?xml version="1.0" encoding="utf-8"?>
<!-- Generator: Adobe Illustrator 12.0.0, SVG Export Plug-In . SVG Version: 6.00 Build 51448)  -->
<!DOCTYPE svg PUBLIC "-//W3C//DTD SVG 1.1//EN" "http://www.w3.org/Graphics/SVG/1.1/DTD/svg11.dtd" [
	<!ENTITY ns_svg "http://www.w3.org/2000/svg">
	<!ENTITY ns_xlink "http://www.w3.org/1999/xlink">
]>
<svg  version="1.1" id="Ebene_1" xmlns="&ns_svg;" xmlns:xlink="&ns_xlink;" width="512" height="512" viewBox="0 0 512 512"
	 overflow="visible" enable-background="new 0 0 512 512" xml:space="preserve">
<g>
	<rect fill="#702020" width="512" height="512"/>
	<g>
		<path fill="#FFFFFF" d="M329.349,327.95l-13.864,26.092l67.875-11.1C369.651,336.067,351.099,331.133,329.349,327.95
			L329.349,327.95z M154.464,333.633c-31.464,8.31-51.381,21.883-51.381,42.075c0,4.35,0.953,8.633,2.779,12.584l108.963-17.8
			L154.464,333.633z M406.341,363.933l-151.646,24.708l39.987,45.469c65.7-5.875,114.242-26.844,114.242-58.435
			C408.917,371.5,407.966,367.583,406.341,363.933L406.341,363.933z M229.07,392.917l-102.461,16.75
			c27.094,16.766,74.886,26.216,129.391,26.216c3.32,0,6.55-0.099,9.8-0.159L229.07,392.917z"/>
		<path fill="#FFFFFF" d="M255.992,76.108c-58.644,0-106.771,47.959-106.771,106.49c0,22.492,7.153,43.451,19.208,60.659
			l69.216,119.625l0.279,0.383c2.742,3.567,5.403,6.367,8.533,8.442c3.125,2.068,7.016,3.326,10.828,2.925
			c7.615-0.75,12.271-6.125,16.714-12.133l0.234-0.317l76.398-130.008l0.067-0.107c1.784-3.234,3.107-6.533,4.25-9.742
			c5.133-12.617,7.815-26.125,7.815-39.758C362.766,124.083,314.641,76.108,255.992,76.108z M255.992,137.433
			c25.44,0,45.308,19.817,45.308,45.143c0,25.342-19.85,45.148-45.308,45.148c-25.438,0-45.313-19.814-45.313-45.148
			C210.68,157.25,230.57,137.433,255.992,137.433L255.992,137.433z"/>
	</g>
</g>
</svg>
