<?xml version="1.0" encoding="utf-8"?>
<!-- Generator: Adobe Illustrator 12.0.0, SVG Export Plug-In . SVG Version: 6.00 Build 51448)  -->
<!DOCTYPE svg PUBLIC "-//W3C//DTD SVG 1.1//EN" "http://www.w3.org/Graphics/SVG/1.1/DTD/svg11.dtd" [
	<!ENTITY ns_svg "http://www.w3.org/2000/svg">
	<!ENTITY ns_xlink "http://www.w3.org/1999/xlink">
]>
<svg  version="1.1" id="Ebene_1" xmlns="&ns_svg;" xmlns:xlink="&ns_xlink;" width="59" height="62" viewBox="0 0 59 62"
	 overflow="visible" enable-background="new 0 0 59 62" xml:space="preserve">
<g fill="#fff">
	<g>
		<path d="M57.742,9.331C57.74,9.33,47.24,3.33,47.24,3.33C46.86,3.114,46.432,3,46,3H32V0h-5v3H11.5C10.122,3,9,4.122,9,5.5v12
			c0,1.378,1.122,2.5,2.5,2.5H27v30h5V20h14c0.433,0,0.862-0.115,1.241-0.333c-0.001,0,10.499-6,10.499-6
			c0.788-0.453,1.258-1.263,1.258-2.169S58.528,9.783,57.742,9.331z M45.604,16H13V7h32.604l7.873,4.5L45.604,16z"/>
	</g>
	<path d="M24.937,36.179c-5.899,0.374-11.236,1.434-15.434,3.065c-2.767,1.075-4.979,2.363-6.572,3.827
		C1.013,44.837,0,46.888,0,49.001c0,2.114,1.013,4.163,2.93,5.927c1.59,1.463,3.802,2.75,6.573,3.827
		C14.879,60.848,21.981,62,29.5,62c7.519,0,14.62-1.152,19.997-3.245c2.81-1.092,4.96-2.344,6.574-3.827
		C57.987,53.163,59,51.114,59,49.001c0-2.112-1.013-4.163-2.928-5.929c-1.601-1.468-3.812-2.755-6.575-3.829
		c-4.199-1.631-9.536-2.69-15.434-3.064L33,36.111v1.065v2.999v0.935l0.933,0.063c5.261,0.355,10.146,1.324,13.755,2.729
		c2.122,0.824,3.896,1.837,4.999,2.851c0.884,0.812,1.313,1.546,1.313,2.247c0,0.698-0.43,1.434-1.313,2.247
		c-1.1,1.01-2.875,2.022-4.999,2.85C42.946,55.942,36.317,57,29.5,57s-13.447-1.058-18.188-2.902
		c-2.124-0.827-3.899-1.84-4.999-2.851C5.43,50.435,5,49.7,5,49.001c0-0.701,0.429-1.436,1.312-2.246
		c1.104-1.015,2.879-2.027,4.999-2.852c3.613-1.405,8.499-2.375,13.757-2.729L26,41.11v-0.935v-2.999v-1.065L24.937,36.179z"/>
</g>
</svg>
